<svg xmlns:xlink="http://www.w3.org/1999/xlink" id="page100" xmlns:ev="http://www.w3.org/2001/xml-events" viewBox="0 0 873 1722" width="873" height="1722" ed:hSpacing="30" xmlns:ed="https://www.edrawsoft.cn//xml/2017/SVGExtensions/" ed:name="Page-1" xmlns="http://www.w3.org/2000/svg" ed:vSpacing="30"><style type="text/css"><![CDATA[
g[ed\:togtopicid],g[ed\:hyperlink],g[ed\:comment],g[ed\:note] {cursor:pointer;}
g[id] {-moz-user-select: none;-ms-user-select: none;user-select: none;}
svg text::selection,svg tspan::selection{background-color: #4285f4;color: #ffffff;fill: #ffffff;}
.st1 {fill:#ffffff;font-family:微软雅黑;font-size:10pt}
]]></style><defs><linearGradient x1="0%" x2="0%" id="lg1" y2="100%" y1="0%"><stop stop-color="#ffffff" offset="0"/><stop stop-color="#f0f5f0" offset="0.25"/><stop stop-color="#e1ebe1" offset="0.75"/><stop stop-color="#c8d7c8" offset="1"/></linearGradient></defs><rect x="0" fill="#1e242f" width="873" height="1722" y="0"/><path id="329" stroke="#e0a7d3" ed:type="summary" d="M0,0C0,0,5.2,-0.2,6.6,16.3C8,32.9,4.7,43.2,5.9,56.3C7,69.3,12,72.4,12,72.4C12,72.4,7.1,75,5.9,88.5C4.6,101.9,8,112,6.6,128.4C5.2,144.9,0,144.8,0,144.8" ed:parentid="319,321,323,325,327" fill="none" ed:idlist="319,321,323,325,327" stroke-linejoin="round" transform="matrix(1,0,0,1,423,769)" stroke-width="2"/><path id="315" stroke="#e0a7d3" ed:type="summary" d="M0,0C0,0,5.2,-0.2,6.6,19.7C8,39.7,4.7,52.3,5.9,68.1C7,83.8,12,87.5,12,87.5C12,87.5,7.1,90.7,5.9,107C4.6,123.2,8,135.4,6.6,155.3C5.2,175.2,0,175,0,175" ed:parentid="300,303,305,307,309,311" fill="none" ed:idlist="300,303,305,307,309,311" stroke-linejoin="round" transform="matrix(1,0,0,1,668,557)" stroke-width="2"/><path id="257" stroke="#e0a7d3" d="M-13.5,238.3L3.7,238.3L3.7,-232.3C3.7,-235.6,6.4,-238.3,9.7,-238.3L13.5,-238.3" ed:parentid="252" fill="none" stroke-linecap="round" stroke-linejoin="round" transform="matrix(1,0,0,1,132,393)" ed:tosuperid="256" stroke-width="2"/><path id="259" stroke="#e0a7d3" d="M3.7,161.2L3.7,-155.2C3.7,-158.5,6.4,-161.2,9.7,-161.2L13.5,-161.2" ed:parentid="252" fill="none" stroke-linecap="round" stroke-linejoin="round" transform="matrix(1,0,0,1,132,470)" ed:tosuperid="258" stroke-width="2"/><path id="261" stroke="#e0a7d3" d="M3.7,36.4L3.7,-30.4C3.7,-33.7,6.4,-36.4,9.7,-36.4L13.5,-36.4" ed:parentid="252" fill="none" stroke-linecap="round" stroke-linejoin="round" transform="matrix(1,0,0,1,132,595)" ed:tosuperid="260" stroke-width="2"/><path id="263" stroke="#e0a7d3" d="M3.7,-186.8L3.7,180.8C3.7,184.1,6.4,186.8,9.7,186.8L13.5,186.8" ed:parentid="252" fill="none" stroke-linecap="round" stroke-linejoin="round" transform="matrix(1,0,0,1,132,818)" ed:tosuperid="262" stroke-width="2"/><path id="265" stroke="#e0a7d3" d="M-13.5,54.4L3.7,54.4L3.7,-48.4C3.7,-51.7,6.4,-54.4,9.7,-54.4L13.5,-54.4" ed:parentid="256" fill="none" stroke-linecap="round" stroke-linejoin="round" transform="matrix(1,0,0,1,306,100)" ed:tosuperid="264" stroke-width="2"/><path id="267" stroke="#e0a7d3" d="M3.7,39.3L3.7,-33.3C3.7,-36.6,6.4,-39.3,9.7,-39.3L13.5,-39.3" ed:parentid="256" fill="none" stroke-linecap="round" stroke-linejoin="round" transform="matrix(1,0,0,1,306,115)" ed:tosuperid="266" stroke-width="2"/><path id="269" stroke="#e0a7d3" d="M-13.5,7.6L3.7,7.6L3.7,-1.6C3.7,-4.9,6.4,-7.6,9.7,-7.6L13.5,-7.6" ed:parentid="258" fill="none" stroke-linecap="round" stroke-linejoin="round" transform="matrix(1,0,0,1,333,301)" ed:tosuperid="268" stroke-width="2"/><path id="271" stroke="#e0a7d3" d="M3.7,6.1L3.7,-0.1C3.7,-3.4,6.4,-6.1,9.7,-6.1L13.5,-6.1" ed:parentid="256" fill="none" stroke-linecap="round" stroke-linejoin="round" transform="matrix(1,0,0,1,306,148)" ed:tosuperid="270" stroke-width="2"/><path id="273" stroke="#e0a7d3" d="M3.7,-9L3.7,3C3.7,6.3,6.4,9,9.7,9L13.5,9" ed:parentid="256" fill="none" stroke-linecap="round" stroke-linejoin="round" transform="matrix(1,0,0,1,306,164)" ed:tosuperid="272" stroke-width="2"/><path id="275" stroke="#e0a7d3" d="M3.7,-39.3L3.7,33.3C3.7,36.6,6.4,39.3,9.7,39.3L13.5,39.3" ed:parentid="256" fill="none" stroke-linecap="round" stroke-linejoin="round" transform="matrix(1,0,0,1,306,194)" ed:tosuperid="274" stroke-width="2"/><path id="277" stroke="#e0a7d3" d="M-13.5,15.1L3.7,15.1L3.7,-9.1C3.7,-12.4,6.4,-15.1,9.7,-15.1L13.5,-15.1" ed:parentid="274" fill="none" stroke-linecap="round" stroke-linejoin="round" transform="matrix(1,0,0,1,378,218)" ed:tosuperid="276" stroke-width="2"/><path id="279" stroke="#e0a7d3" d="M3.7,0C3.7,0,6.4,0,9.7,0L13.5,0" ed:parentid="274" fill="none" stroke-linecap="round" stroke-linejoin="round" transform="matrix(1,0,0,1,378,233)" ed:tosuperid="278" stroke-width="2"/><path id="281" stroke="#e0a7d3" d="M3.7,-15.1L3.7,9.1C3.7,12.4,6.4,15.1,9.7,15.1L13.5,15.1" ed:parentid="274" fill="none" stroke-linecap="round" stroke-linejoin="round" transform="matrix(1,0,0,1,378,248)" ed:tosuperid="280" stroke-width="2"/><path id="283" stroke="#e0a7d3" d="M3.7,-7.6L3.7,1.6C3.7,4.9,6.4,7.6,9.7,7.6L13.5,7.6" ed:parentid="258" fill="none" stroke-linecap="round" stroke-linejoin="round" transform="matrix(1,0,0,1,333,316)" ed:tosuperid="282" stroke-width="2"/><path id="285" stroke="#e0a7d3" d="M-13.5,37.8L3.7,37.8L3.7,-31.8C3.7,-35.1,6.4,-37.8,9.7,-37.8L13.5,-37.8" ed:parentid="286" fill="none" stroke-linecap="round" stroke-linejoin="round" transform="matrix(1,0,0,1,445,392)" ed:tosuperid="284" stroke-width="2"/><path id="287" stroke="#e0a7d3" d="M-13.5,64.3L3.7,64.3L3.7,-58.3C3.7,-61.7,6.4,-64.3,9.7,-64.3L13.5,-64.3" ed:parentid="260" fill="none" stroke-linecap="round" stroke-linejoin="round" transform="matrix(1,0,0,1,346,494)" ed:tosuperid="286" stroke-width="2"/><path id="289" stroke="#e0a7d3" d="M3.7,22.7L3.7,-16.7C3.7,-20,6.4,-22.7,9.7,-22.7L13.5,-22.7" ed:parentid="286" fill="none" stroke-linecap="round" stroke-linejoin="round" transform="matrix(1,0,0,1,445,407)" ed:tosuperid="288" stroke-width="2"/><path id="291" stroke="#e0a7d3" d="M3.7,7.6L3.7,-1.6C3.7,-4.9,6.4,-7.6,9.7,-7.6L13.5,-7.6" ed:parentid="286" fill="none" stroke-linecap="round" stroke-linejoin="round" transform="matrix(1,0,0,1,445,422)" ed:tosuperid="290" stroke-width="2"/><path id="293" stroke="#e0a7d3" d="M3.7,-7.6L3.7,1.6C3.7,4.9,6.4,7.6,9.7,7.6L13.5,7.6" ed:parentid="286" fill="none" stroke-linecap="round" stroke-linejoin="round" transform="matrix(1,0,0,1,445,437)" ed:tosuperid="292" stroke-width="2"/><path id="295" stroke="#e0a7d3" d="M3.7,-22.7L3.7,16.7C3.7,20,6.4,22.7,9.7,22.7L13.5,22.7" ed:parentid="286" fill="none" stroke-linecap="round" stroke-linejoin="round" transform="matrix(1,0,0,1,445,452)" ed:tosuperid="294" stroke-width="2"/><path id="297" stroke="#e0a7d3" d="M3.7,-37.8L3.7,31.8C3.7,35.1,6.4,37.8,9.7,37.8L13.5,37.8" ed:parentid="286" fill="none" stroke-linecap="round" stroke-linejoin="round" transform="matrix(1,0,0,1,445,467)" ed:tosuperid="296" stroke-width="2"/><path id="299" stroke="#e0a7d3" d="M3.7,-56.8L3.7,50.8C3.7,54.1,6.4,56.8,9.7,56.8L13.5,56.8" ed:parentid="260" fill="none" stroke-linecap="round" stroke-linejoin="round" transform="matrix(1,0,0,1,346,615)" ed:tosuperid="298" stroke-width="2"/><path id="301" stroke="#e0a7d3" d="M-13.5,45.4L3.7,45.4L3.7,-39.4C3.7,-42.7,6.4,-45.4,9.7,-45.4L13.5,-45.4" ed:parentid="298" fill="none" stroke-linecap="round" stroke-linejoin="round" transform="matrix(1,0,0,1,445,627)" ed:tosuperid="300" stroke-width="2"/><path id="304" stroke="#e0a7d3" d="M3.7,30.3L3.7,-24.3C3.7,-27.6,6.4,-30.3,9.7,-30.3L13.5,-30.3" ed:parentid="298" fill="none" stroke-linecap="round" stroke-linejoin="round" transform="matrix(1,0,0,1,445,642)" ed:tosuperid="303" stroke-width="2"/><path id="306" stroke="#e0a7d3" d="M3.7,15.1L3.7,-9.1C3.7,-12.4,6.4,-15.1,9.7,-15.1L13.5,-15.1" ed:parentid="298" fill="none" stroke-linecap="round" stroke-linejoin="round" transform="matrix(1,0,0,1,445,657)" ed:tosuperid="305" stroke-width="2"/><path id="308" stroke="#e0a7d3" d="M3.7,0C3.7,0,6.4,0,9.7,0L13.5,0" ed:parentid="298" fill="none" stroke-linecap="round" stroke-linejoin="round" transform="matrix(1,0,0,1,445,672)" ed:tosuperid="307" stroke-width="2"/><path id="310" stroke="#e0a7d3" d="M3.7,-15.1L3.7,9.1C3.7,12.4,6.4,15.1,9.7,15.1L13.5,15.1" ed:parentid="298" fill="none" stroke-linecap="round" stroke-linejoin="round" transform="matrix(1,0,0,1,445,687)" ed:tosuperid="309" stroke-width="2"/><path id="312" stroke="#e0a7d3" d="M3.7,-30.3L3.7,24.3C3.7,27.6,6.4,30.3,9.7,30.3L13.5,30.3" ed:parentid="298" fill="none" stroke-linecap="round" stroke-linejoin="round" transform="matrix(1,0,0,1,445,702)" ed:tosuperid="311" stroke-width="2"/><path id="314" stroke="#e0a7d3" d="M3.7,-45.4L3.7,39.4C3.7,42.7,6.4,45.4,9.7,45.4L13.5,45.4" ed:parentid="298" fill="none" stroke-linecap="round" stroke-linejoin="round" transform="matrix(1,0,0,1,445,717)" ed:tosuperid="313" stroke-width="2"/><path id="320" stroke="#e0a7d3" d="M-13.5,105.9L3.7,105.9L3.7,-99.9C3.7,-103.2,6.4,-105.9,9.7,-105.9L13.5,-105.9" ed:parentid="262" fill="none" stroke-linecap="round" stroke-linejoin="round" transform="matrix(1,0,0,1,333,899)" ed:tosuperid="319" stroke-width="2"/><path id="322" stroke="#e0a7d3" d="M3.7,90.8L3.7,-84.8C3.7,-88.1,6.4,-90.8,9.7,-90.8L13.5,-90.8" ed:parentid="262" fill="none" stroke-linecap="round" stroke-linejoin="round" transform="matrix(1,0,0,1,333,914)" ed:tosuperid="321" stroke-width="2"/><path id="324" stroke="#e0a7d3" d="M3.7,75.6L3.7,-69.6C3.7,-72.9,6.4,-75.6,9.7,-75.6L13.5,-75.6" ed:parentid="262" fill="none" stroke-linecap="round" stroke-linejoin="round" transform="matrix(1,0,0,1,333,929)" ed:tosuperid="323" stroke-width="2"/><path id="326" stroke="#e0a7d3" d="M3.7,60.5L3.7,-54.5C3.7,-57.8,6.4,-60.5,9.7,-60.5L13.5,-60.5" ed:parentid="262" fill="none" stroke-linecap="round" stroke-linejoin="round" transform="matrix(1,0,0,1,333,944)" ed:tosuperid="325" stroke-width="2"/><path id="328" stroke="#e0a7d3" d="M3.7,45.4L3.7,-39.4C3.7,-42.7,6.4,-45.4,9.7,-45.4L13.5,-45.4" ed:parentid="262" fill="none" stroke-linecap="round" stroke-linejoin="round" transform="matrix(1,0,0,1,333,959)" ed:tosuperid="327" stroke-width="2"/><path id="332" stroke="#e0a7d3" d="M3.7,30.3L3.7,-24.3C3.7,-27.6,6.4,-30.3,9.7,-30.3L13.5,-30.3" ed:parentid="262" fill="none" stroke-linecap="round" stroke-linejoin="round" transform="matrix(1,0,0,1,333,974)" ed:tosuperid="331" stroke-width="2"/><path id="336" stroke="#e0a7d3" d="M3.7,15.1L3.7,-9.1C3.7,-12.4,6.4,-15.1,9.7,-15.1L13.5,-15.1" ed:parentid="262" fill="none" stroke-linecap="round" stroke-linejoin="round" transform="matrix(1,0,0,1,333,990)" ed:tosuperid="335" stroke-width="2"/><path id="338" stroke="#e0a7d3" d="M3.7,0C3.7,0,6.4,0,9.7,0L13.5,0" ed:parentid="262" fill="none" stroke-linecap="round" stroke-linejoin="round" transform="matrix(1,0,0,1,333,1005)" ed:tosuperid="337" stroke-width="2"/><path id="340" stroke="#e0a7d3" d="M3.7,-15.1L3.7,9.1C3.7,12.4,6.4,15.1,9.7,15.1L13.5,15.1" ed:parentid="262" fill="none" stroke-linecap="round" stroke-linejoin="round" transform="matrix(1,0,0,1,333,1020)" ed:tosuperid="339" stroke-width="2"/><path id="342" stroke="#e0a7d3" d="M3.7,-30.3L3.7,24.3C3.7,27.6,6.4,30.3,9.7,30.3L13.5,30.3" ed:parentid="262" fill="none" stroke-linecap="round" stroke-linejoin="round" transform="matrix(1,0,0,1,333,1035)" ed:tosuperid="341" stroke-width="2"/><path id="344" stroke="#e0a7d3" d="M3.7,-45.4L3.7,39.4C3.7,42.7,6.4,45.4,9.7,45.4L13.5,45.4" ed:parentid="262" fill="none" stroke-linecap="round" stroke-linejoin="round" transform="matrix(1,0,0,1,333,1050)" ed:tosuperid="343" stroke-width="2"/><path id="346" stroke="#e0a7d3" d="M3.7,-60.5L3.7,54.5C3.7,57.8,6.4,60.5,9.7,60.5L13.5,60.5" ed:parentid="262" fill="none" stroke-linecap="round" stroke-linejoin="round" transform="matrix(1,0,0,1,333,1065)" ed:tosuperid="345" stroke-width="2"/><path id="348" stroke="#e0a7d3" d="M3.7,-75.6L3.7,69.6C3.7,72.9,6.4,75.6,9.7,75.6L13.5,75.6" ed:parentid="262" fill="none" stroke-linecap="round" stroke-linejoin="round" transform="matrix(1,0,0,1,333,1080)" ed:tosuperid="347" stroke-width="2"/><path id="350" stroke="#e0a7d3" d="M3.7,-90.8L3.7,84.8C3.7,88.1,6.4,90.8,9.7,90.8L13.5,90.8" ed:parentid="262" fill="none" stroke-linecap="round" stroke-linejoin="round" transform="matrix(1,0,0,1,333,1095)" ed:tosuperid="349" stroke-width="2"/><path id="352" stroke="#e0a7d3" d="M3.7,-105.9L3.7,99.9C3.7,103.2,6.4,105.9,9.7,105.9L13.5,105.9" ed:parentid="262" fill="none" stroke-linecap="round" stroke-linejoin="round" transform="matrix(1,0,0,1,333,1111)" ed:tosuperid="351" stroke-width="2"/><path id="354" stroke="#e0a7d3" d="M-13.5,22.7L3.7,22.7L3.7,-16.7C3.7,-20,6.4,-22.7,9.7,-22.7L13.5,-22.7" ed:parentid="333" fill="none" stroke-linecap="round" stroke-linejoin="round" transform="matrix(1,0,0,1,159,1269)" ed:tosuperid="353" stroke-width="2"/><path id="358" stroke="#e0a7d3" d="M3.7,7.6L3.7,-1.6C3.7,-4.9,6.4,-7.6,9.7,-7.6L13.5,-7.6" ed:parentid="333" fill="none" stroke-linecap="round" stroke-linejoin="round" transform="matrix(1,0,0,1,159,1284)" ed:tosuperid="357" stroke-width="2"/><path id="360" stroke="#e0a7d3" d="M3.7,-7.6L3.7,1.6C3.7,4.9,6.4,7.6,9.7,7.6L13.5,7.6" ed:parentid="333" fill="none" stroke-linecap="round" stroke-linejoin="round" transform="matrix(1,0,0,1,159,1300)" ed:tosuperid="359" stroke-width="2"/><path id="362" stroke="#e0a7d3" d="M3.7,-22.7L3.7,16.7C3.7,20,6.4,22.7,9.7,22.7L13.5,22.7" ed:parentid="333" fill="none" stroke-linecap="round" stroke-linejoin="round" transform="matrix(1,0,0,1,159,1315)" ed:tosuperid="361" stroke-width="2"/><path id="366" stroke="#e0a7d3" d="M-13.5,45.4L3.7,45.4L3.7,-39.4C3.7,-42.7,6.4,-45.4,9.7,-45.4L13.5,-45.4" ed:parentid="363" fill="none" stroke-linecap="round" stroke-linejoin="round" transform="matrix(1,0,0,1,159,1489)" ed:tosuperid="365" stroke-width="2"/><path id="368" stroke="#e0a7d3" d="M-13.5,37.8L3.7,37.8L3.7,-31.8C3.7,-35.1,6.4,-37.8,9.7,-37.8L13.5,-37.8" ed:parentid="365" fill="none" stroke-linecap="round" stroke-linejoin="round" transform="matrix(1,0,0,1,293,1405)" ed:tosuperid="367" stroke-width="2"/><path id="370" stroke="#e0a7d3" d="M3.7,22.7L3.7,-16.7C3.7,-20,6.4,-22.7,9.7,-22.7L13.5,-22.7" ed:parentid="365" fill="none" stroke-linecap="round" stroke-linejoin="round" transform="matrix(1,0,0,1,293,1421)" ed:tosuperid="369" stroke-width="2"/><path id="372" stroke="#e0a7d3" d="M3.7,7.6L3.7,-1.6C3.7,-4.9,6.4,-7.6,9.7,-7.6L13.5,-7.6" ed:parentid="365" fill="none" stroke-linecap="round" stroke-linejoin="round" transform="matrix(1,0,0,1,293,1436)" ed:tosuperid="371" stroke-width="2"/><path id="374" stroke="#e0a7d3" d="M3.7,-7.6L3.7,1.6C3.7,4.9,6.4,7.6,9.7,7.6L13.5,7.6" ed:parentid="365" fill="none" stroke-linecap="round" stroke-linejoin="round" transform="matrix(1,0,0,1,293,1451)" ed:tosuperid="373" stroke-width="2"/><path id="376" stroke="#e0a7d3" d="M3.7,-22.7L3.7,16.7C3.7,20,6.4,22.7,9.7,22.7L13.5,22.7" ed:parentid="365" fill="none" stroke-linecap="round" stroke-linejoin="round" transform="matrix(1,0,0,1,293,1466)" ed:tosuperid="375" stroke-width="2"/><path id="378" stroke="#e0a7d3" d="M3.7,-37.8L3.7,31.8C3.7,35.1,6.4,37.8,9.7,37.8L13.5,37.8" ed:parentid="365" fill="none" stroke-linecap="round" stroke-linejoin="round" transform="matrix(1,0,0,1,293,1481)" ed:tosuperid="377" stroke-width="2"/><path id="380" stroke="#e0a7d3" d="M3.7,-22.7L3.7,16.7C3.7,20,6.4,22.7,9.7,22.7L13.5,22.7" ed:parentid="363" fill="none" stroke-linecap="round" stroke-linejoin="round" transform="matrix(1,0,0,1,159,1557)" ed:tosuperid="379" stroke-width="2"/><path id="382" stroke="#e0a7d3" d="M-13.5,15.1L3.7,15.1L3.7,-9.1C3.7,-12.4,6.4,-15.1,9.7,-15.1L13.5,-15.1" ed:parentid="379" fill="none" stroke-linecap="round" stroke-linejoin="round" transform="matrix(1,0,0,1,333,1564)" ed:tosuperid="381" stroke-width="2"/><path id="384" stroke="#e0a7d3" d="M3.7,0C3.7,0,6.4,0,9.7,0L13.5,0" ed:parentid="379" fill="none" stroke-linecap="round" stroke-linejoin="round" transform="matrix(1,0,0,1,333,1579)" ed:tosuperid="383" stroke-width="2"/><path id="386" stroke="#e0a7d3" d="M3.7,-15.1L3.7,9.1C3.7,12.4,6.4,15.1,9.7,15.1L13.5,15.1" ed:parentid="379" fill="none" stroke-linecap="round" stroke-linejoin="round" transform="matrix(1,0,0,1,333,1595)" ed:tosuperid="385" stroke-width="2"/><path id="388" stroke="#e0a7d3" d="M3.7,-68.1L3.7,62.1C3.7,65.4,6.4,68.1,9.7,68.1L13.5,68.1" ed:parentid="363" fill="none" stroke-linecap="round" stroke-linejoin="round" transform="matrix(1,0,0,1,159,1602)" ed:tosuperid="387" stroke-width="2"/><path id="390" stroke="#e0a7d3" d="M-13.5,15.1L3.7,15.1L3.7,-9.1C3.7,-12.4,6.4,-15.1,9.7,-15.1L13.5,-15.1" ed:parentid="387" fill="none" stroke-linecap="round" stroke-linejoin="round" transform="matrix(1,0,0,1,306,1655)" ed:tosuperid="389" stroke-width="2"/><path id="392" stroke="#e0a7d3" d="M3.7,0C3.7,0,6.4,0,9.7,0L13.5,0" ed:parentid="387" fill="none" stroke-linecap="round" stroke-linejoin="round" transform="matrix(1,0,0,1,306,1670)" ed:tosuperid="391" stroke-width="2"/><path id="394" stroke="#e0a7d3" d="M3.7,-15.1L3.7,9.1C3.7,12.4,6.4,15.1,9.7,15.1L13.5,15.1" ed:parentid="387" fill="none" stroke-linecap="round" stroke-linejoin="round" transform="matrix(1,0,0,1,306,1685)" ed:tosuperid="393" stroke-width="2"/><g id="302" ed:topictype="callout" ed:height="35" ed:width="116" ed:parentid="298" transform="matrix(1,0,0,1,360,512)" ed:layout="rightmap"><path stroke="#e0a7d3" d="M4,0L112,0C114.7,0,116,1.3,116,4L116,31C116,33.7,114.7,35,112,35L64.1,35C61.4,35,59.8,36.3,59.3,38.9L38.6,132.5C38,135.1,37.9,135.1,38.2,132.4L49.5,39C49.8,36.3,48.7,35,46,35L4,35C1.3,35,0,33.7,0,31L0,4C0,1.3,1.3,0,4,0z" fill="none" stroke-linejoin="round" stroke-width="2"/><text class="st1"><tspan x="14" style="white-space:pre" y="21.3">B.Boehm提出</tspan></text></g><g id="252" ed:topictype="mainidea" ed:height="23.75" ed:width="96.33333333333334" transform="matrix(1,0,0,1,22,607)"><path stroke="#e0a7d3" d="M0,23.8L96.3,23.8" fill="none" stroke-linejoin="round" stroke-width="2"/><text class="st1"><tspan x="8" style="white-space:pre" y="15.3">1.3.软件工程</tspan></text></g><g id="256" ed:height="23.75" ed:width="147.3333333333333" ed:parentid="252" transform="matrix(1,0,0,1,145,131)"><path stroke="#e0a7d3" d="M0,23.8L147.3,23.8" fill="none" stroke-linejoin="round" stroke-width="2"/><text class="st1"><tspan x="8" style="white-space:pre" y="15.3">1.3.1.软件工程的概念</tspan></text></g><g id="258" ed:height="23.75" ed:width="174" ed:parentid="252" transform="matrix(1,0,0,1,145,285)"><path stroke="#e0a7d3" d="M0,23.8L174,23.8" fill="none" stroke-linejoin="round" stroke-width="2"/><text class="st1"><tspan x="8" style="white-space:pre" y="15.3">1.3.2.软件工程研究的内容</tspan></text></g><g id="260" ed:height="23.75" ed:width="187.3333333333333" ed:parentid="252" transform="matrix(1,0,0,1,145,535)"><path stroke="#e0a7d3" d="M0,23.8L187.3,23.8" fill="none" stroke-linejoin="round" stroke-width="2"/><text class="st1"><tspan x="8" style="white-space:pre" y="15.3">1.3.3.软件工程的目标和原则</tspan></text></g><g id="262" ed:height="23.75" ed:width="174" ed:parentid="252" transform="matrix(1,0,0,1,145,981)"><path stroke="#e0a7d3" d="M0,23.8L174,23.8" fill="none" stroke-linejoin="round" stroke-width="2"/><text class="st1"><tspan x="8" style="white-space:pre" y="15.3">1.3.4.软件工程的知识体系</tspan></text></g><g id="264" ed:height="23.75" ed:width="138" ed:parentid="256" transform="matrix(1,0,0,1,320,22)"><path stroke="#e0a7d3" d="M0,23.8L138,23.8" fill="none" stroke-linejoin="round" stroke-width="2"/><text class="st1"><tspan x="8" style="white-space:pre" y="15.3">将工程化应用于软件</tspan></text></g><g id="266" ed:height="23.75" ed:width="124.6666666666667" ed:parentid="256" transform="matrix(1,0,0,1,320,52)"><path stroke="#e0a7d3" d="M0,23.8L124.7,23.8" fill="none" stroke-linejoin="round" stroke-width="2"/><text class="st1"><tspan x="8" style="white-space:pre" y="15.3">对上述问题的研究</tspan></text></g><g id="268" ed:height="23.75" ed:width="98" ed:parentid="258" transform="matrix(1,0,0,1,346,270)"><path stroke="#e0a7d3" d="M0,23.8L98,23.8" fill="none" stroke-linejoin="round" stroke-width="2"/><text class="st1"><tspan x="8" style="white-space:pre" y="15.3">软件开发技术</tspan></text></g><g id="270" ed:height="59.75" ed:width="244.6666666666667" ed:parentid="256" transform="matrix(1,0,0,1,320,83)"><path stroke="#e0a7d3" d="M0,59.8L244.7,59.8" fill="none" stroke-linejoin="round" stroke-width="2"/><text class="st1"><tspan x="8" style="white-space:pre" y="15.3">以借鉴传统工程的原则、方法，</tspan><tspan x="8" style="white-space:pre" y="33.3">以提高质量、降低成本为目的，</tspan><tspan x="8" style="white-space:pre" y="51.3">指导计算机软件开发和维护的工程学科</tspan></text></g><g id="272" ed:height="23.75" ed:width="111.3333333333333" ed:parentid="256" transform="matrix(1,0,0,1,320,149)"><path stroke="#e0a7d3" d="M0,23.8L111.3,23.8" fill="none" stroke-linejoin="round" stroke-width="2"/><text class="st1"><tspan x="8" style="white-space:pre" y="15.3">目标：关注质量</tspan></text></g><g id="274" ed:height="23.75" ed:width="44.66666666666667" ed:parentid="256" transform="matrix(1,0,0,1,320,209)"><path stroke="#e0a7d3" d="M0,23.8L44.7,23.8" fill="none" stroke-linejoin="round" stroke-width="2"/><text class="st1"><tspan x="8" style="white-space:pre" y="15.3">要素</tspan></text></g><g id="276" ed:height="23.75" ed:width="44.66666666666667" ed:parentid="274" transform="matrix(1,0,0,1,391,179)"><path stroke="#e0a7d3" d="M0,23.8L44.7,23.8" fill="none" stroke-linejoin="round" stroke-width="2"/><text class="st1"><tspan x="8" style="white-space:pre" y="15.3">过程</tspan></text></g><g id="278" ed:height="23.75" ed:width="44.66666666666667" ed:parentid="274" transform="matrix(1,0,0,1,391,209)"><path stroke="#e0a7d3" d="M0,23.8L44.7,23.8" fill="none" stroke-linejoin="round" stroke-width="2"/><text class="st1"><tspan x="8" style="white-space:pre" y="15.3">方法</tspan></text></g><g id="280" ed:height="23.75" ed:width="44.66666666666667" ed:parentid="274" transform="matrix(1,0,0,1,391,240)"><path stroke="#e0a7d3" d="M0,23.8L44.7,23.8" fill="none" stroke-linejoin="round" stroke-width="2"/><text class="st1"><tspan x="8" style="white-space:pre" y="15.3">工具</tspan></text></g><g id="282" ed:height="23.75" ed:width="124.6666666666667" ed:parentid="258" transform="matrix(1,0,0,1,346,300)"><path stroke="#e0a7d3" d="M0,23.8L124.7,23.8" fill="none" stroke-linejoin="round" stroke-width="2"/><text class="st1"><tspan x="8" style="white-space:pre" y="15.3">软件开发过程管理</tspan></text></g><g id="284" ed:height="23.75" ed:width="138" ed:parentid="286" transform="matrix(1,0,0,1,458,330)"><path stroke="#e0a7d3" d="M0,23.8L138,23.8" fill="none" stroke-linejoin="round" stroke-width="2"/><text class="st1"><tspan x="8" style="white-space:pre" y="15.3">达到要求的软件功能</tspan></text></g><g id="286" ed:height="23.75" ed:width="71.33333333333334" ed:parentid="260" transform="matrix(1,0,0,1,360,406)"><path stroke="#e0a7d3" d="M0,23.8L71.3,23.8" fill="none" stroke-linejoin="round" stroke-width="2"/><text class="st1"><tspan x="8" style="white-space:pre" y="15.3">基本目标</tspan></text></g><g id="288" ed:height="23.75" ed:width="138" ed:parentid="286" transform="matrix(1,0,0,1,458,361)"><path stroke="#e0a7d3" d="M0,23.8L138,23.8" fill="none" stroke-linejoin="round" stroke-width="2"/><text class="st1"><tspan x="8" style="white-space:pre" y="15.3">取得较好的软件性能</tspan></text></g><g id="290" ed:height="23.75" ed:width="138" ed:parentid="286" transform="matrix(1,0,0,1,458,391)"><path stroke="#e0a7d3" d="M0,23.8L138,23.8" fill="none" stroke-linejoin="round" stroke-width="2"/><text class="st1"><tspan x="8" style="white-space:pre" y="15.3">开发出高质量的软件</tspan></text></g><g id="292" ed:height="23.75" ed:width="138" ed:parentid="286" transform="matrix(1,0,0,1,458,421)"><path stroke="#e0a7d3" d="M0,23.8L138,23.8" fill="none" stroke-linejoin="round" stroke-width="2"/><text class="st1"><tspan x="8" style="white-space:pre" y="15.3">付出较低的开发成本</tspan></text></g><g id="294" ed:height="23.75" ed:width="138" ed:parentid="286" transform="matrix(1,0,0,1,458,451)"><path stroke="#e0a7d3" d="M0,23.8L138,23.8" fill="none" stroke-linejoin="round" stroke-width="2"/><text class="st1"><tspan x="8" style="white-space:pre" y="15.3">需要较低的维护费用</tspan></text></g><g id="296" ed:height="23.75" ed:width="231.3333333333333" ed:parentid="286" transform="matrix(1,0,0,1,458,482)"><path stroke="#e0a7d3" d="M0,23.8L231.3,23.8" fill="none" stroke-linejoin="round" stroke-width="2"/><text class="st1"><tspan x="8" style="white-space:pre" y="15.3">能按时完成开发工作，即使交付使用</tspan></text></g><g id="298" ed:height="23.75" ed:width="71.33333333333334" ed:parentid="260" transform="matrix(1,0,0,1,360,648)"><path stroke="#e0a7d3" d="M0,23.8L71.3,23.8" fill="none" stroke-linejoin="round" stroke-width="2"/><text class="st1"><tspan x="8" style="white-space:pre" y="15.3">基本原则</tspan></text></g><g id="300" ed:height="23.75" ed:width="204.6666666666667" ed:parentid="298" transform="matrix(1,0,0,1,458,557)"><path stroke="#e0a7d3" d="M0,23.8L204.7,23.8" fill="none" stroke-linejoin="round" stroke-width="2"/><text class="st1"><tspan x="8" style="white-space:pre" y="15.3">用分段的生命周期计划严格管理</tspan></text></g><g id="303" ed:height="23.75" ed:width="124.6666666666667" ed:parentid="298" transform="matrix(1,0,0,1,458,588)"><path stroke="#e0a7d3" d="M0,23.8L124.7,23.8" fill="none" stroke-linejoin="round" stroke-width="2"/><text class="st1"><tspan x="8" style="white-space:pre" y="15.3">坚持进行阶段评审</tspan></text></g><g id="305" ed:height="23.75" ed:width="138" ed:parentid="298" transform="matrix(1,0,0,1,458,618)"><path stroke="#e0a7d3" d="M0,23.8L138,23.8" fill="none" stroke-linejoin="round" stroke-width="2"/><text class="st1"><tspan x="8" style="white-space:pre" y="15.3">实行严格的产品控制</tspan></text></g><g id="307" ed:height="23.75" ed:width="151.3333333333333" ed:parentid="298" transform="matrix(1,0,0,1,458,648)"><path stroke="#e0a7d3" d="M0,23.8L151.3,23.8" fill="none" stroke-linejoin="round" stroke-width="2"/><text class="st1"><tspan x="8" style="white-space:pre" y="15.3">采用现代程序设计技术</tspan></text></g><g id="309" ed:height="23.75" ed:width="191.3333333333333" ed:parentid="298" transform="matrix(1,0,0,1,458,678)"><path stroke="#e0a7d3" d="M0,23.8L191.3,23.8" fill="none" stroke-linejoin="round" stroke-width="2"/><text class="st1"><tspan x="8" style="white-space:pre" y="15.3">软件工程结果应能清楚地审查</tspan></text></g><g id="311" ed:height="23.75" ed:width="178" ed:parentid="298" transform="matrix(1,0,0,1,458,709)"><path stroke="#e0a7d3" d="M0,23.8L178,23.8" fill="none" stroke-linejoin="round" stroke-width="2"/><text class="st1"><tspan x="8" style="white-space:pre" y="15.3">开发小组的人员应该少而精</tspan></text></g><g id="313" ed:height="23.75" ed:width="231.3333333333333" ed:parentid="298" transform="matrix(1,0,0,1,458,739)"><path stroke="#e0a7d3" d="M0,23.8L231.3,23.8" fill="none" stroke-linejoin="round" stroke-width="2"/><text class="st1"><tspan x="8" style="white-space:pre" y="15.3">承认不断开进软件工程实践的必要性</tspan></text></g><g id="316" ed:height="29" ed:width="162.3733333333334" ed:parentid="315" transform="matrix(1,0,0,1,689,630)" ed:layout="rightmap"><path stroke="#e0a7d3" d="M14.5,0L147.9,0C155.9,0,162.4,6.5,162.4,14.5C162.4,22.5,155.9,29,147.9,29L14.5,29C6.5,29,0,22.5,0,14.5C0,6.5,6.5,0,14.5,0z" fill="none" stroke-linejoin="round" stroke-width="2"/><text class="st1"><tspan x="13" style="white-space:pre" y="18.3">实现软件的工程化生产</tspan></text></g><g id="319" ed:height="23.75" ed:width="71.33333333333334" ed:parentid="262" transform="matrix(1,0,0,1,346,769)"><path stroke="#e0a7d3" d="M0,23.8L71.3,23.8" fill="none" stroke-linejoin="round" stroke-width="2"/><text class="st1"><tspan x="8" style="white-space:pre" y="15.3">软件需求</tspan></text></g><g id="321" ed:height="23.75" ed:width="71.33333333333334" ed:parentid="262" transform="matrix(1,0,0,1,346,799)"><path stroke="#e0a7d3" d="M0,23.8L71.3,23.8" fill="none" stroke-linejoin="round" stroke-width="2"/><text class="st1"><tspan x="8" style="white-space:pre" y="15.3">软件设计</tspan></text></g><g id="323" ed:height="23.75" ed:width="71.33333333333334" ed:parentid="262" transform="matrix(1,0,0,1,346,830)"><path stroke="#e0a7d3" d="M0,23.8L71.3,23.8" fill="none" stroke-linejoin="round" stroke-width="2"/><text class="st1"><tspan x="8" style="white-space:pre" y="15.3">软件构件</tspan></text></g><g id="325" ed:height="23.75" ed:width="71.33333333333334" ed:parentid="262" transform="matrix(1,0,0,1,346,860)"><path stroke="#e0a7d3" d="M0,23.8L71.3,23.8" fill="none" stroke-linejoin="round" stroke-width="2"/><text class="st1"><tspan x="8" style="white-space:pre" y="15.3">软件测试</tspan></text></g><g id="327" ed:height="23.75" ed:width="71.33333333333334" ed:parentid="262" transform="matrix(1,0,0,1,346,890)"><path stroke="#e0a7d3" d="M0,23.8L71.3,23.8" fill="none" stroke-linejoin="round" stroke-width="2"/><text class="st1"><tspan x="8" style="white-space:pre" y="15.3">软件维护</tspan></text></g><g id="330" ed:height="29" ed:width="82.37333333333333" ed:parentid="329" transform="matrix(1,0,0,1,444,827)" ed:layout="rightmap"><path stroke="#e0a7d3" d="M14.5,0L67.9,0C75.9,0,82.4,6.5,82.4,14.5C82.4,22.5,75.9,29,67.9,29L14.5,29C6.5,29,0,22.5,0,14.5C0,6.5,6.5,0,14.5,0z" fill="none" stroke-linejoin="round" stroke-width="2"/><text class="st1"><tspan x="13" style="white-space:pre" y="18.3">课本提及</tspan></text></g><g id="331" ed:height="23.75" ed:width="98" ed:parentid="262" transform="matrix(1,0,0,1,346,920)"><path stroke="#e0a7d3" d="M0,23.8L98,23.8" fill="none" stroke-linejoin="round" stroke-width="2"/><text class="st1"><tspan x="8" style="white-space:pre" y="15.3">软件配置管理</tspan></text></g><g id="333" ed:topictype="mainidea" ed:height="23.75" ed:width="123" transform="matrix(1,0,0,1,22,1268)"><path stroke="#e0a7d3" d="M0,23.8L123,23.8" fill="none" stroke-linejoin="round" stroke-width="2"/><text class="st1"><tspan x="8" style="white-space:pre" y="15.3">1.4.软件开发方法</tspan></text></g><g id="335" ed:height="23.75" ed:width="98" ed:parentid="262" transform="matrix(1,0,0,1,346,951)"><path stroke="#e0a7d3" d="M0,23.8L98,23.8" fill="none" stroke-linejoin="round" stroke-width="2"/><text class="st1"><tspan x="8" style="white-space:pre" y="15.3">软件工程管理</tspan></text></g><g id="337" ed:height="23.75" ed:width="98" ed:parentid="262" transform="matrix(1,0,0,1,346,981)"><path stroke="#e0a7d3" d="M0,23.8L98,23.8" fill="none" stroke-linejoin="round" stroke-width="2"/><text class="st1"><tspan x="8" style="white-space:pre" y="15.3">软件工程过程</tspan></text></g><g id="339" ed:height="23.75" ed:width="138" ed:parentid="262" transform="matrix(1,0,0,1,346,1011)"><path stroke="#e0a7d3" d="M0,23.8L138,23.8" fill="none" stroke-linejoin="round" stroke-width="2"/><text class="st1"><tspan x="8" style="white-space:pre" y="15.3">软件工程模型和方法</tspan></text></g><g id="341" ed:height="23.75" ed:width="71.33333333333334" ed:parentid="262" transform="matrix(1,0,0,1,346,1041)"><path stroke="#e0a7d3" d="M0,23.8L71.3,23.8" fill="none" stroke-linejoin="round" stroke-width="2"/><text class="st1"><tspan x="8" style="white-space:pre" y="15.3">软件质量</tspan></text></g><g id="343" ed:height="23.75" ed:width="124.6666666666667" ed:parentid="262" transform="matrix(1,0,0,1,346,1072)"><path stroke="#e0a7d3" d="M0,23.8L124.7,23.8" fill="none" stroke-linejoin="round" stroke-width="2"/><text class="st1"><tspan x="8" style="white-space:pre" y="15.3">软件工程职业实践</tspan></text></g><g id="345" ed:height="23.75" ed:width="111.3333333333333" ed:parentid="262" transform="matrix(1,0,0,1,346,1102)"><path stroke="#e0a7d3" d="M0,23.8L111.3,23.8" fill="none" stroke-linejoin="round" stroke-width="2"/><text class="st1"><tspan x="8" style="white-space:pre" y="15.3">软件工程经济学</tspan></text></g><g id="347" ed:height="23.75" ed:width="71.33333333333334" ed:parentid="262" transform="matrix(1,0,0,1,346,1132)"><path stroke="#e0a7d3" d="M0,23.8L71.3,23.8" fill="none" stroke-linejoin="round" stroke-width="2"/><text class="st1"><tspan x="8" style="white-space:pre" y="15.3">计算基础</tspan></text></g><g id="349" ed:height="23.75" ed:width="71.33333333333334" ed:parentid="262" transform="matrix(1,0,0,1,346,1162)"><path stroke="#e0a7d3" d="M0,23.8L71.3,23.8" fill="none" stroke-linejoin="round" stroke-width="2"/><text class="st1"><tspan x="8" style="white-space:pre" y="15.3">数学基础</tspan></text></g><g id="351" ed:height="23.75" ed:width="71.33333333333334" ed:parentid="262" transform="matrix(1,0,0,1,346,1193)"><path stroke="#e0a7d3" d="M0,23.8L71.3,23.8" fill="none" stroke-linejoin="round" stroke-width="2"/><text class="st1"><tspan x="8" style="white-space:pre" y="15.3">工程基础</tspan></text></g><g id="353" ed:height="23.75" ed:width="120.6666666666667" ed:parentid="333" transform="matrix(1,0,0,1,172,1223)"><path stroke="#e0a7d3" d="M0,23.8L120.7,23.8" fill="none" stroke-linejoin="round" stroke-width="2"/><text class="st1"><tspan x="8" style="white-space:pre" y="15.3">1.4.1.结构化方法</tspan></text></g><g id="357" ed:height="23.75" ed:width="160.6666666666667" ed:parentid="333" transform="matrix(1,0,0,1,172,1253)"><path stroke="#e0a7d3" d="M0,23.8L160.7,23.8" fill="none" stroke-linejoin="round" stroke-width="2"/><text class="st1"><tspan x="8" style="white-space:pre" y="15.3">1.4.2.面向数据结构方法</tspan></text></g><g id="359" ed:height="23.75" ed:width="134" ed:parentid="333" transform="matrix(1,0,0,1,172,1283)"><path stroke="#e0a7d3" d="M0,23.8L134,23.8" fill="none" stroke-linejoin="round" stroke-width="2"/><text class="st1"><tspan x="8" style="white-space:pre" y="15.3">1.4.3.面向对象方法</tspan></text></g><g id="361" ed:height="23.75" ed:width="120.6666666666667" ed:parentid="333" transform="matrix(1,0,0,1,172,1314)"><path stroke="#e0a7d3" d="M0,23.8L120.7,23.8" fill="none" stroke-linejoin="round" stroke-width="2"/><text class="st1"><tspan x="8" style="white-space:pre" y="15.3">1.4.4.形式化方法</tspan></text></g><g id="363" ed:topictype="mainidea" ed:height="23.75" ed:width="123" transform="matrix(1,0,0,1,22,1510)"><path stroke="#e0a7d3" d="M0,23.8L123,23.8" fill="none" stroke-linejoin="round" stroke-width="2"/><text class="st1"><tspan x="8" style="white-space:pre" y="15.3">1.5.软件工程工具</tspan></text></g><g id="365" ed:height="23.75" ed:width="107.3333333333333" ed:parentid="363" transform="matrix(1,0,0,1,172,1420)"><path stroke="#e0a7d3" d="M0,23.8L107.3,23.8" fill="none" stroke-linejoin="round" stroke-width="2"/><text class="st1"><tspan x="8" style="white-space:pre" y="15.3">1.5.1.功能划分</tspan></text></g><g id="367" ed:height="23.75" ed:width="84.66666666666667" ed:parentid="365" transform="matrix(1,0,0,1,306,1344)"><path stroke="#e0a7d3" d="M0,23.8L84.7,23.8" fill="none" stroke-linejoin="round" stroke-width="2"/><text class="st1"><tspan x="8" style="white-space:pre" y="15.3">可视化建模</tspan></text></g><g id="369" ed:height="23.75" ed:width="71.33333333333334" ed:parentid="365" transform="matrix(1,0,0,1,306,1374)"><path stroke="#e0a7d3" d="M0,23.8L71.3,23.8" fill="none" stroke-linejoin="round" stroke-width="2"/><text class="st1"><tspan x="8" style="white-space:pre" y="15.3">程序开发</tspan></text></g><g id="371" ed:height="23.75" ed:width="84.66666666666667" ed:parentid="365" transform="matrix(1,0,0,1,306,1404)"><path stroke="#e0a7d3" d="M0,23.8L84.7,23.8" fill="none" stroke-linejoin="round" stroke-width="2"/><text class="st1"><tspan x="8" style="white-space:pre" y="15.3">自动化测试</tspan></text></g><g id="373" ed:height="23.75" ed:width="71.33333333333334" ed:parentid="365" transform="matrix(1,0,0,1,306,1435)"><path stroke="#e0a7d3" d="M0,23.8L71.3,23.8" fill="none" stroke-linejoin="round" stroke-width="2"/><text class="st1"><tspan x="8" style="white-space:pre" y="15.3">文档编辑</tspan></text></g><g id="375" ed:height="23.75" ed:width="71.33333333333334" ed:parentid="365" transform="matrix(1,0,0,1,306,1465)"><path stroke="#e0a7d3" d="M0,23.8L71.3,23.8" fill="none" stroke-linejoin="round" stroke-width="2"/><text class="st1"><tspan x="8" style="white-space:pre" y="15.3">配置管理</tspan></text></g><g id="377" ed:height="23.75" ed:width="71.33333333333334" ed:parentid="365" transform="matrix(1,0,0,1,306,1495)"><path stroke="#e0a7d3" d="M0,23.8L71.3,23.8" fill="none" stroke-linejoin="round" stroke-width="2"/><text class="st1"><tspan x="8" style="white-space:pre" y="15.3">项目管理</tspan></text></g><g id="379" ed:height="23.75" ed:width="147.3333333333333" ed:parentid="363" transform="matrix(1,0,0,1,172,1556)"><path stroke="#e0a7d3" d="M0,23.8L147.3,23.8" fill="none" stroke-linejoin="round" stroke-width="2"/><text class="st1"><tspan x="8" style="white-space:pre" y="15.3">1.5.2.支持的过程划分</tspan></text></g><g id="381" ed:height="23.75" ed:width="71.33333333333334" ed:parentid="379" transform="matrix(1,0,0,1,346,1525)"><path stroke="#e0a7d3" d="M0,23.8L71.3,23.8" fill="none" stroke-linejoin="round" stroke-width="2"/><text class="st1"><tspan x="8" style="white-space:pre" y="15.3">设计工具</tspan></text></g><g id="383" ed:height="23.75" ed:width="71.33333333333334" ed:parentid="379" transform="matrix(1,0,0,1,346,1556)"><path stroke="#e0a7d3" d="M0,23.8L71.3,23.8" fill="none" stroke-linejoin="round" stroke-width="2"/><text class="st1"><tspan x="8" style="white-space:pre" y="15.3">编程工具</tspan></text></g><g id="385" ed:height="23.75" ed:width="71.33333333333334" ed:parentid="379" transform="matrix(1,0,0,1,346,1586)"><path stroke="#e0a7d3" d="M0,23.8L71.3,23.8" fill="none" stroke-linejoin="round" stroke-width="2"/><text class="st1"><tspan x="8" style="white-space:pre" y="15.3">维护工具</tspan></text></g><g id="387" ed:height="23.75" ed:width="120.6666666666667" ed:parentid="363" transform="matrix(1,0,0,1,172,1646)"><path stroke="#e0a7d3" d="M0,23.8L120.7,23.8" fill="none" stroke-linejoin="round" stroke-width="2"/><text class="st1"><tspan x="8" style="white-space:pre" y="15.3">1.5.3.支持的范围</tspan></text></g><g id="389" ed:height="23.75" ed:width="98" ed:parentid="387" transform="matrix(1,0,0,1,320,1616)"><path stroke="#e0a7d3" d="M0,23.8L98,23.8" fill="none" stroke-linejoin="round" stroke-width="2"/><text class="st1"><tspan x="8" style="white-space:pre" y="15.3">窄支持：工具</tspan></text></g><g id="391" ed:height="23.75" ed:width="124.6666666666667" ed:parentid="387" transform="matrix(1,0,0,1,320,1646)"><path stroke="#e0a7d3" d="M0,23.8L124.7,23.8" fill="none" stroke-linejoin="round" stroke-width="2"/><text class="st1"><tspan x="8" style="white-space:pre" y="15.3">较宽支持：工作台</tspan></text></g><g id="393" ed:height="23.75" ed:width="111.3333333333333" ed:parentid="387" transform="matrix(1,0,0,1,320,1677)"><path stroke="#e0a7d3" d="M0,23.8L111.3,23.8" fill="none" stroke-linejoin="round" stroke-width="2"/><text class="st1"><tspan x="8" style="white-space:pre" y="15.3">一般支持：环境</tspan></text></g><g transform="translate(119,613)" ed:togtopicid="252"><use xlink:href="#minus"/></g><g transform="translate(294,137)" ed:togtopicid="256"><use xlink:href="#minus"/></g><g transform="translate(320,291)" ed:togtopicid="258"><use xlink:href="#minus"/></g><g transform="translate(334,540)" ed:togtopicid="260"><use xlink:href="#minus"/></g><g transform="translate(320,987)" ed:togtopicid="262"><use xlink:href="#minus"/></g><g transform="translate(365,215)" ed:togtopicid="274"><use xlink:href="#minus"/></g><g transform="translate(432,412)" ed:togtopicid="286"><use xlink:href="#minus"/></g><g transform="translate(432,654)" ed:togtopicid="298"><use xlink:href="#minus"/></g><g transform="translate(146,1274)" ed:togtopicid="333"><use xlink:href="#minus"/></g><g transform="translate(146,1516)" ed:togtopicid="363"><use xlink:href="#minus"/></g><g transform="translate(280,1425)" ed:togtopicid="365"><use xlink:href="#minus"/></g><g transform="translate(320,1562)" ed:togtopicid="379"><use xlink:href="#minus"/></g><g transform="translate(294,1652)" ed:togtopicid="387"><use xlink:href="#minus"/></g><symbol id="plus"><path d="M11,6C11,8.8,8.8,11,6,11C3.2,11,1,8.8,1,6C1,3.2,3.2,1,6,1C8.8,1,11,3.2,11,6z" fill="url(#lg1)"/><path stroke="#46a000" d="M11,6C11,8.8,8.8,11,6,11C3.2,11,1,8.8,1,6C1,3.2,3.2,1,6,1C8.8,1,11,3.2,11,6zM3,6L9,6M6,3L6,9" fill="none" stroke-width="0.7"/></symbol><symbol id="minus"><path d="M11,6C11,8.8,8.8,11,6,11C3.2,11,1,8.8,1,6C1,3.2,3.2,1,6,1C8.8,1,11,3.2,11,6z" fill="url(#lg1)"/><path stroke="#46a000" d="M11,6C11,8.8,8.8,11,6,11C3.2,11,1,8.8,1,6C1,3.2,3.2,1,6,1C8.8,1,11,3.2,11,6zM3,6L9,6" fill="none" stroke-width="0.7"/></symbol></svg>